<svg xmlns="http://www.w3.org/2000/svg" width="274.857" height="240.268" viewBox="0 0 274.857 240.268">
  <g id="Group_206" data-name="Group 206" transform="translate(-6645.118 -648.414)">
    <path id="Path_1356" data-name="Path 1356" d="M226.28,113.957c3.743-6.313,6.952-12.1,10.523-17.643,3.611-5.61,9.11-7.625,15.552-6.606a13.821,13.821,0,0,1,11.506,9.815c1.868,5.587.388,10.689-2.546,15.656q-22.159,37.527-44.138,75.161-13.611,23.2-27.216,46.4c-.807,1.379-1.484,2.833-2.553,4.891h5.981c16.462,0,32.925-.1,49.386.034,15.966.13,24.606,8.994,26.785,23.354.991,6.526.056,7.182-6.415,7.189q-79.315.082-158.632.148c-7.246.007-13.061-2.477-16.043-9.493a14.2,14.2,0,0,1,2.477-15.79c3.764-4.345,8.844-5.61,14.365-5.609,13.968,0,27.937-.105,41.9.08,3.086.041,4.745-.993,6.259-3.588q26.238-44.961,52.72-89.778c1.63-2.757,1.8-4.771.065-7.59-5.666-9.182-11.17-18.476-16.415-27.906-3.939-7.081-2.329-15.317,3.354-19.857a15.5,15.5,0,0,1,19.34-.043,22.184,22.184,0,0,1,4.366,5.354c3.068,4.929,5.935,9.983,9.376,15.823" transform="translate(6558 559)" fill="#272727"/>
    <path id="Path_1357" data-name="Path 1357" d="M249.2,153.5c11.145,18.841,22.128,37.406,33.108,55.971,5.494,9.29,11.093,18.519,16.408,27.91,1.66,2.932,3.47,4.177,6.983,4.113,12.966-.237,25.941-.156,38.911-.07,8.377.056,14.489,4.2,16.63,10.99,3.155,10.009-4.208,19.643-15.428,19.894-8.572.191-17.152.038-26.614.038,6.638,11.308,13.138,21.692,18.851,32.493a23.26,23.26,0,0,1,2.574,12.679c-.686,6.2-5.006,10.475-11.356,11.7-6.8,1.312-12.628-.7-16.4-6.753-4.476-7.187-8.653-14.56-12.937-21.866q-28.98-49.419-57.919-98.862c-9.509-16.332-6.71-35.381,7.187-48.238" transform="translate(6558 559)" fill="#272727"/>
    <path id="Path_1358" data-name="Path 1358" d="M138.36,277.058c7.784.167,14.311,3,18.607,9.649a6.55,6.55,0,0,1,.166,5.658c-5.557,9.817-11.367,19.495-17.27,29.111-4.97,8.1-13.876,10.457-21.471,5.935-7.579-4.512-9.716-13.478-4.983-21.626,4.419-7.605,9-15.119,13.543-22.65,3.289-5.448,4.819-6.228,11.408-6.077" transform="translate(6558 559)" fill="#272727"/>
  </g>
</svg>
