<svg id="Group_211" data-name="Group 211" xmlns="http://www.w3.org/2000/svg" xmlns:xlink="http://www.w3.org/1999/xlink" width="512" height="384" viewBox="0 0 512 384">
  <defs>
    <clipPath id="clip-path">
      <rect id="Rectangle_74" data-name="Rectangle 74" width="512" height="384" fill="none"/>
    </clipPath>
  </defs>
  <g id="Group_210" data-name="Group 210" clip-path="url(#clip-path)">
    <path id="Path_1361" data-name="Path 1361" d="M0,309V75a11.746,11.746,0,0,0,.9-2.252C6.882,38.909,26.31,16.292,58.3,4.361,63.662,2.361,69.423,1.427,75,0H437a11.548,11.548,0,0,0,2.248.9c33.652,5.912,56.224,25.18,68.214,56.94C509.54,63.349,510.515,69.27,512,75V309a11.622,11.622,0,0,0-.911,2.233c-6.67,36.042-27.624,59.3-62.634,69.926-3.76,1.141-7.634,1.9-11.455,2.841H75a11.518,11.518,0,0,0-2.237-.909C37.93,376.8,15.029,356.657,3.6,323.336,2.011,318.692,1.182,313.785,0,309m256.311-61.765c13.872-.048,26.767-4.45,38.511-12.306q54.582-36.518,109.089-73.147c18.388-12.332,36.826-24.591,55.153-37.012,12.63-8.56,13.757-26.571,2.346-34.913-7.483-5.47-16.649-5.076-26.044,1.224Q353.674,145.859,272,200.664c-10.9,7.309-18.994,7.268-29.968-.091q-60.555-40.609-121.1-81.235c-14.654-9.828-29.2-19.821-44.023-29.392-10.508-6.786-24.3-4.614-29.937,4.313a22.778,22.778,0,0,0,7.059,31.4c54.638,36.254,108.983,72.95,163.475,109.425a68.777,68.777,0,0,0,38.808,12.146" fill="#010101"/>
  </g>
</svg>
