<svg xmlns="http://www.w3.org/2000/svg" xmlns:xlink="http://www.w3.org/1999/xlink" width="221" height="221" viewBox="0 0 221 221">
  <defs>
    <clipPath id="clip-path">
      <rect id="Rectangle_75" data-name="Rectangle 75" width="221" height="221" transform="translate(-0.244 -0.314)" fill="none"/>
    </clipPath>
  </defs>
  <g id="Group_222" data-name="Group 222" transform="translate(0.244 0.314)">
    <g id="Group_213" data-name="Group 213" clip-path="url(#clip-path)">
      <path id="Path_1362" data-name="Path 1362" d="M221.373,23.276V197.417a8.675,8.675,0,0,0-.419,1.2A26.838,26.838,0,0,1,194.3,220.689q-21.627.015-43.255,0H148.8V137.509c8.991,0,17.811-.029,26.63.029,1.434.009,1.964-.368,2.125-1.877.349-3.273.98-6.516,1.478-9.774,1.2-7.853,2.391-15.708,3.626-23.83H148.9a3.994,3.994,0,0,1-.248-.834c0-8.332-.216-16.673.081-25,.318-8.93,6.435-15.4,15.35-16.251,5.547-.528,11.163-.342,16.749-.467,1.046-.023,2.093,0,3.151,0V29.324c-1.545-.239-3.009-.5-4.482-.687-10.606-1.328-21.238-2.561-31.914-1.045-13.428,1.906-24.2,8.132-31.068,20.19a49.061,49.061,0,0,0-6.158,23.477c-.222,9.406-.073,18.82-.085,28.23,0,.764,0,1.528,0,2.555H79.058v35.482h31.06v83.164h-2.281q-39.92,0-79.839,0a26.818,26.818,0,0,1-27-27.06q-.008-83.293.013-166.586C1.019,16.974,5.458,9.181,13.989,3.989,16.968,2.175,20.518,1.3,23.807,0H198.56a4.219,4.219,0,0,0,.917.427,26.883,26.883,0,0,1,16.665,10.518c2.791,3.676,4.166,7.932,5.23,12.332" transform="translate(-0.564)" fill="#ccc"/>
    </g>
  </g>
</svg>
