<svg id="Group_201" data-name="Group 201" xmlns="http://www.w3.org/2000/svg" xmlns:xlink="http://www.w3.org/1999/xlink" width="118" height="183" viewBox="0 0 118 183">
  <defs>
    <clipPath id="clip-path">
      <rect id="Rectangle_60" data-name="Rectangle 60" width="118" height="183" fill="#3e3e3e"/>
    </clipPath>
  </defs>
  <g id="Group_80" data-name="Group 80" clip-path="url(#clip-path)">
    <path id="Path_98" data-name="Path 98" d="M88.558,0A65.58,65.58,0,0,1,95.6,1.886c16.092,6.214,20.931,26.972,9,39.415C94.6,51.743,84.211,61.827,73.971,72.05c-1.7,1.7-3.25,1.69-4.948-.006C58.785,61.82,48.387,51.747,38.407,41.276c-6.8-7.135-8.459-15.886-5.012-25.131C36.808,6.994,43.677,1.744,53.4.354A5.763,5.763,0,0,0,54.439,0h3.412a19.289,19.289,0,0,1,3.122.606c3.619,1.328,7.2,2.758,11.1,4.265a22.1,22.1,0,0,1,3.909-2.2c3-1.054,6.106-1.8,9.168-2.674ZM71.253,65.786c9.92-9.85,19.737-19.248,29.136-29.047,6.664-6.947,6.071-18.219-.717-25.042A18.415,18.415,0,0,0,74.6,10.812c-2.772,2.41-3.365,2.372-6.251-.043A17.755,17.755,0,0,0,51.16,7.082a18.3,18.3,0,0,0-7.772,30.576c7.626,7.831,15.438,15.481,23.154,23.224,1.6,1.6,3.141,3.267,4.71,4.9" transform="translate(-19.62)" fill="#3e3e3e"/>
    <path id="Path_99" data-name="Path 99" d="M83.451,200.74l5.582-5.55c-3.851-4.451-3.852-4.451.428-8.731,1.966-1.967,3.916-3.951,5.906-5.894,1.684-1.645,3.3-1.686,4.948-.046q8.342,8.284,16.618,16.634c1.55,1.565,1.531,3.232-.014,4.818-2.47,2.535-4.99,5.022-7.5,7.522-2.359,2.353-3.621,2.342-6.018-.052-.357-.357-.667-.76-.942-1.077l-6.24,6.473c7.865,13.061,10.011,27.375,5.4,42.465a50.364,50.364,0,0,1-21.6,28.3A51.612,51.612,0,0,1,12.1,209.744c15.165-19.141,46.175-27.513,71.351-9m-31.1-4.222a45.528,45.528,0,1,0,45.512,45.457,45.716,45.716,0,0,0-45.512-45.457m57.851,3.406L97.635,187.336l-3.64,3.408,12.619,12.62,3.587-3.441m-16.425-.015L88.33,205l3.718,4.016,5.5-5.238-3.773-3.867" transform="translate(-0.492 -111.151)" fill="#3e3e3e"/>
    <path id="Path_100" data-name="Path 100" d="M104.034,100.34l14.823,14.828-4.029,3.558L100.023,103.9l4.011-3.557" transform="translate(-62.003 -62.199)" fill="#3e3e3e"/>
    <path id="Path_101" data-name="Path 101" d="M80.042,76.169,84.3,80.4l-4.376,4.033-4.113-4.5,4.234-3.762" transform="translate(-46.992 -47.216)" fill="#3e3e3e"/>
    <path id="Path_102" data-name="Path 102" d="M72.209,319.469a39.455,39.455,0,1,1,39.406-39.336,39.375,39.375,0,0,1-39.406,39.336m32.941-42.481c-.8-16.87-16.57-29.876-29.97-29.833v11.473h-6.1V247.02c-14.171-.256-31.769,17.535-29.66,30.026H50.807v6.111H39.2c.988,16.632,16.028,29.408,30,29.806v-11.6H75.23v11.583c15.668-.48,29.593-15.347,29.834-29.913H93.543v-6.047Z" transform="translate(-20.311 -149.119)" fill="#3e3e3e"/>
    <path id="Path_103" data-name="Path 103" d="M146.646,316.7v6.094h-5.059c-3.281,0-6.562-.008-9.843,0-1.764,0-3.122-.822-3.172-2.556-.148-5.155-.053-10.316-.053-15.563h5.976V316.7Z" transform="translate(-79.649 -188.864)" fill="#3e3e3e"/>
  </g>
</svg>
