<svg xmlns="http://www.w3.org/2000/svg" xmlns:xlink="http://www.w3.org/1999/xlink" width="221" height="221" viewBox="0 0 221 221">
  <defs>
    <clipPath id="clip-path">
      <rect id="Rectangle_82" data-name="Rectangle 82" width="221" height="221" transform="translate(-0.244 0.263)" fill="none"/>
    </clipPath>
  </defs>
  <g id="Group_236" data-name="Group 236" transform="translate(0.244 -0.263)">
    <g id="Group_234" data-name="Group 234" clip-path="url(#clip-path)">
      <path id="Path_3729" data-name="Path 3729" d="M0,202.165V18.953a4.976,4.976,0,0,0,.436-.981A22.6,22.6,0,0,1,7.969,5.289c3.166-2.774,7-4.129,10.937-5.289H201.67a10.1,10.1,0,0,0,1.2.461c8.349,2.08,13.9,7.226,16.73,15.342.362,1.037.653,2.1.977,3.149V202.165a9.02,9.02,0,0,0-.465,1.2A22.232,22.232,0,0,1,208.3,218.654a55.649,55.649,0,0,1-6.634,2.463H18.907a10,10,0,0,0-1.194-.468C8.837,218.385,3.159,212.822.6,204.025c-.182-.625-.4-1.241-.6-1.861M92,83.62v95.218h29.663V176q0-25.712,0-51.423c0-4.676.721-9.107,3.731-12.919,4.118-5.215,9.474-7.21,15.918-5.995,5.918,1.117,9.163,5.191,10.454,10.782a46.319,46.319,0,0,1,1.21,10.009c.12,16.539.055,33.078.055,49.618v2.715h29.331c.041-.795.1-1.389.1-1.982,0-18.043.064-36.087-.045-54.129a82.451,82.451,0,0,0-1.019-12.32c-2.759-17.464-14.07-27.983-31.287-28.822-12.423-.606-22.679,3.973-30.213,14.122a7.53,7.53,0,0,0-.691,1.6l-.759-.62c-.474-4.309-.948-8.617-1.432-13.019Zm-23.787.087H38.951v95.174H68.214ZM38.135,56.892c-.014,8.635,6.311,14.824,15.186,14.861,9.222.038,15.989-6.147,16.008-14.635C69.35,48.355,62.81,42.1,53.7,42.171c-9.208.072-15.549,6.069-15.562,14.721" fill="#ccc"/>
    </g>
  </g>
</svg>
