<svg xmlns="http://www.w3.org/2000/svg" xmlns:xlink="http://www.w3.org/1999/xlink" width="627.069" height="627.069" viewBox="0 0 627.069 627.069">
  <defs>
    <clipPath id="clip-path">
      <rect id="Rectangle_73" data-name="Rectangle 73" width="512" height="512" fill="none"/>
    </clipPath>
  </defs>
  <g id="Group_208" data-name="Group 208" transform="matrix(0.259, -0.966, 0.966, 0.259, 0, 494.554)">
    <g id="Group_207" data-name="Group 207" clip-path="url(#clip-path)">
      <path id="Path_1359" data-name="Path 1359" d="M92.818,512c-14.827-3.888-25.787-13.974-37.073-23.414-17.106-14.308-33.632-29.2-46.857-47.41-7.213-9.934-8.8-20.688-7.423-32.57,4.5-38.854,20.833-73.128,40.718-105.983,26.562-43.883,59.316-82.974,94.536-120.044,41.3-43.471,84.9-84.42,133.9-119.255C302.673,40.532,336.2,20.3,374.189,8.914c12-3.6,24.549-5.478,36.939-7.608C422.5-.649,432.715,2.581,442.035,9.418c15,11,27.667,24.378,39.863,38.259,4.169,4.744,8.1,9.7,12.154,14.542,7.7,9.194,14.962,18.642,17.948,30.6v12.975c-2.685,11.123-10.434,17.8-19.638,23.781-30.356,19.719-60.641,39.561-90.555,59.941-12.47,8.5-25.146,9.4-38.119,3.383-12.764-5.92-24.9-13.2-37.282-19.933-4.227-2.3-8.453-4.626-12.506-7.212-2.606-1.663-4.6-1.692-7.011.406-21.049,18.314-42.777,35.9-63.122,54.96A686.646,686.646,0,0,0,168.186,303.9c-3.646,4.75-3.673,8.039-.7,12.991,7.686,12.8,14.87,25.909,22.023,39.021,5.771,10.578,9.273,21.741,5.979,33.9a31.668,31.668,0,0,1-4.242,8.913c-22.037,33.412-44.25,66.708-66.227,100.159-4.706,7.164-11.567,10.58-19.226,13.112ZM21.629,417.349c-1.348,6.059,3.1,11.742,7.771,16.486C43.373,448.021,57.775,461.8,72.317,475.4a119.24,119.24,0,0,0,16.637,12.664c8.9,5.777,15.622,4.168,21.339-4.456,20.831-31.429,41.572-62.918,62.552-94.248,3.3-4.927,3.9-9.747,2.039-15.038a61.442,61.442,0,0,0-4.144-9.546q-14.406-25.89-29.09-51.626c-1.4-2.452-1.677-4.305.023-6.676,4.063-5.664,7.66-11.677,11.911-17.19,30.572-39.651,65.584-75.165,102.925-108.336,15.485-13.755,32.555-25.724,48.852-38.571,2.994-2.36,5.495-2.274,8.842-.3q19.722,11.646,39.81,22.666a220.431,220.431,0,0,0,20.974,10.211,12.975,12.975,0,0,0,12.794-1.167q48.744-32.448,97.635-64.675c5.775-3.826,7.462-8.3,5.144-14.941a31.525,31.525,0,0,0-5-9.091c-7.865-9.879-15.478-20.045-24.188-29.144-10.081-10.531-21.126-20.152-31.946-29.954-3.81-3.451-8.528-4.554-13.859-4.221-15.214.95-29.814,4.5-44.072,9.627C339.356,42.95,310.263,60.2,282.744,80.1,217,127.642,159.706,184.177,107.944,246.411,80.569,279.323,56.16,314.285,38.573,353.59c-8.86,19.8-15.442,40.23-16.944,63.759" fill="#010101"/>
      <path id="Path_1360" data-name="Path 1360" d="M21.629,417.349c1.5-23.529,8.084-43.957,16.944-63.759,17.587-39.3,42-74.267,69.371-107.179C159.706,184.177,217,127.642,282.744,80.1,310.263,60.2,339.356,42.95,371.5,31.392c14.258-5.127,28.858-8.677,44.072-9.627,5.331-.333,10.049.77,13.859,4.221,10.82,9.8,21.865,19.423,31.946,29.954,8.71,9.1,16.323,19.265,24.188,29.144a31.525,31.525,0,0,1,5,9.091c2.318,6.642.631,11.115-5.144,14.941q-48.816,32.34-97.635,64.675a12.975,12.975,0,0,1-12.794,1.167,220.431,220.431,0,0,1-20.974-10.211q-20.072-11.031-39.81-22.666c-3.347-1.976-5.848-2.062-8.842.3-16.3,12.847-33.367,24.816-48.852,38.571-37.341,33.171-72.353,68.685-102.925,108.336-4.251,5.513-7.848,11.526-11.911,17.19-1.7,2.371-1.425,4.224-.023,6.676q14.706,25.722,29.09,51.626a61.442,61.442,0,0,1,4.144,9.546c1.857,5.291,1.26,10.111-2.039,15.038-20.98,31.33-41.721,62.819-62.552,94.248-5.717,8.624-12.437,10.233-21.339,4.456A119.24,119.24,0,0,1,72.317,475.4C57.775,461.8,43.373,448.021,29.4,433.835c-4.674-4.744-9.119-10.427-7.771-16.486" fill="#010101"/>
    </g>
  </g>
</svg>
