<svg xmlns="http://www.w3.org/2000/svg" xmlns:xlink="http://www.w3.org/1999/xlink" width="153" height="124" viewBox="0 0 153 124">
  <defs>
    <clipPath id="clip-path">
      <rect id="Rectangle_58" data-name="Rectangle 58" width="153" height="124" transform="translate(0 0.237)" fill="#3e3e3e"/>
    </clipPath>
  </defs>
  <g id="Group_199" data-name="Group 199" transform="translate(0 -0.237)">
    <g id="Group_78" data-name="Group 78" clip-path="url(#clip-path)">
      <path id="Path_91" data-name="Path 91" d="M149.154,125.021H3.58A6.993,6.993,0,0,1,0,121.443V4.558C1.252,1.717,3.477.969,6.479.973q70.177.1,140.354.047c4.206,0,5.862,1.655,5.862,5.859q0,55.833.047,111.666c.006,3-.754,5.221-3.588,6.476M143.171,39.2H9.589v76.2H143.171Zm-.047-28.636H9.583v19H143.124Z" transform="translate(0 -0.682)" fill="#3e3e3e"/>
      <path id="Path_92" data-name="Path 92" d="M99.159,189.106c.61.639.973,1.036,1.353,1.416,6.359,6.359,12.738,12.7,19.072,19.082,2.761,2.783,1.729,7.026-1.905,8.068a4.4,4.4,0,0,1-4.537-1.157q-11.993-11.932-23.929-23.922a4.544,4.544,0,0,1,.034-6.678q11.876-11.944,23.826-23.814a4.721,4.721,0,1,1,6.58,6.769q-9.507,9.57-19.078,19.077c-.386.385-.845.7-1.416,1.16" transform="translate(-61.535 -112.641)" fill="#3e3e3e"/>
      <path id="Path_93" data-name="Path 93" d="M333.725,189.332c-.97-.842-1.642-1.359-2.238-1.953q-9.132-9.1-18.24-18.228c-2.186-2.191-2.315-5.034-.357-7.01s4.836-1.881,7.014.291q11.611,11.576,23.195,23.182c2.391,2.4,2.379,5.027-.028,7.439q-11.53,11.552-23.089,23.077c-2.252,2.247-5.144,2.367-7.12.337-1.936-1.987-1.783-4.808.415-7.011q9.425-9.442,18.874-18.861c.382-.381.845-.682,1.576-1.263" transform="translate(-218.402 -112.687)" fill="#3e3e3e"/>
      <path id="Path_94" data-name="Path 94" d="M239.618,150.058c-.532,2.166-1.161,4.767-1.81,7.362q-6.246,24.967-12.5,49.933c-.66,2.635-2.4,4.122-4.769,4.1a4.625,4.625,0,0,1-4.528-3.613,5.691,5.691,0,0,1,.064-2.485q7.035-28.368,14.139-56.718a4.79,4.79,0,0,1,5.388-3.852,4.914,4.914,0,0,1,4.016,5.27" transform="translate(-151.371 -101.472)" fill="#3e3e3e"/>
      <path id="Path_95" data-name="Path 95" d="M73.478,53.731a4.731,4.731,0,1,1-4.753-4.708,4.755,4.755,0,0,1,4.753,4.708" transform="translate(-44.882 -34.37)" fill="#3e3e3e"/>
      <path id="Path_96" data-name="Path 96" d="M127.889,53.642a4.732,4.732,0,1,1,4.625,4.837,4.734,4.734,0,0,1-4.625-4.837" transform="translate(-89.663 -34.368)" fill="#3e3e3e"/>
      <path id="Path_97" data-name="Path 97" d="M196.516,49.023a4.729,4.729,0,1,1-4.75,4.7,4.757,4.757,0,0,1,4.75-4.7" transform="translate(-134.449 -34.37)" fill="#3e3e3e"/>
    </g>
  </g>
</svg>
