<svg id="Group_200" data-name="Group 200" xmlns="http://www.w3.org/2000/svg" xmlns:xlink="http://www.w3.org/1999/xlink" width="206" height="171" viewBox="0 0 206 171">
  <defs>
    <clipPath id="clip-path">
      <rect id="Rectangle_56" data-name="Rectangle 56" width="206" height="171" fill="#272727"/>
    </clipPath>
  </defs>
  <g id="Group_76" data-name="Group 76" clip-path="url(#clip-path)">
    <path id="Path_76" data-name="Path 76" d="M433.65,255.1h-21.3V160.58h21.3v5.35c-4.154-.03-8.308-.074-12.462-.081-1,0-2.422-.212-2.2,1.333.084.573,1.411,1.347,2.192,1.372,4.152.132,8.31.055,12.466.051v4.9c-2.653.034-5.314-.041-7.952.168-.807.064-1.552.907-2.326,1.392.773.486,1.519,1.329,2.326,1.392,2.639.209,5.3.134,7.952.169v5.35c-4.155-.022-8.311-.055-12.466-.059-1.007,0-2.286-.227-2.278,1.357.007,1.538,1.237,1.4,2.275,1.4q6.235,0,12.469-.019v4.9c-2.645.072-5.3.044-7.928.278-.815.072-1.567.858-2.347,1.317.771.489,1.514,1.339,2.317,1.4,2.641.2,5.3.106,7.959.127v5.35c-4.23-.016-8.461-.094-12.687.015-.7.018-1.388.855-2.08,1.313.693.46,1.375,1.3,2.079,1.317,4.227.114,8.458.04,12.688.029v5.35c-2.722-.055-5.447-.205-8.163-.1-.717.028-1.4.846-2.1,1.3.693.491,1.363,1.362,2.084,1.406,2.718.168,5.454.068,8.182.068v5.35c-4.23-.007-8.463-.077-12.69.04-.7.02-1.386.856-2.078,1.316.692.456,1.375,1.287,2.079,1.305,4.227.108,8.458.03,12.688.014v5.35c-2.725-.04-5.453-.174-8.171-.057-.716.031-1.4.841-2.1,1.293.694.481,1.365,1.334,2.085,1.377,2.718.163,5.453.063,8.181.062v5.35c-4.3,0-8.611-.064-12.913.051-.63.017-1.238.868-1.856,1.333.619.452,1.23,1.281,1.859,1.295,4.3.095,8.606.018,12.91,0v5.35c-2.726-.03-5.456-.153-8.175-.026-.716.034-1.394.845-2.09,1.3.693.472,1.366,1.308,2.084,1.35,2.719.157,5.453.057,8.181.053v5.35c-4.3,0-8.611-.06-12.913.06-.631.017-1.238.885-1.856,1.359.622.457,1.237,1.3,1.867,1.31,4.3.079,8.6-.016,12.9-.055Z" transform="translate(-228.025 -88.799)" fill="#272727"/>
    <path id="Path_77" data-name="Path 77" d="M8.471,0l5.793,4.353L5.256,13.391c-1.068-1.1-2.341-2.234-3.4-3.542a4.3,4.3,0,0,1,.2-5.872C3.465,2.519,5.134,1.316,6.687,0Z" transform="translate(-0.442)" fill="#272727"/>
    <path id="Path_78" data-name="Path 78" d="M72.836,88.964A8.881,8.881,0,0,0,74.01,91.1q9.881,9.979,19.853,19.866a9.963,9.963,0,0,0,2.456,1.868q9.737,4.892,19.544,9.642a7.757,7.757,0,0,0,2.434.3,6.929,6.929,0,0,0-.109-2.619q-4.773-9.911-9.752-19.722a10.02,10.02,0,0,0-1.908-2.423c-5.857-5.889-11.743-11.75-17.9-17.9H213.712V193.536h-2.543q-49.606,0-99.213-.041a9.263,9.263,0,0,1-4.011-.956c-11.453-5.774-22.853-11.654-34.293-17.453a2.589,2.589,0,0,1-1.8-2.628q.077-40.782.041-81.564c0-.418.044-.837.068-1.256l.879-.675M190.05,134.988a31.893,31.893,0,1,0-32.01,31.815,31.914,31.914,0,0,0,32.01-31.815m-31.94-36.3v-.016a12.017,12.017,0,0,0,2.855-.061c.557-.14.966-.874,1.442-1.341-.458-.463-.89-1.29-1.379-1.325a38.185,38.185,0,0,0-5.935.034c-.469.039-1.257.939-1.2,1.355a2.057,2.057,0,0,0,1.366,1.3,12.556,12.556,0,0,0,2.856.059m25.108,66.132c-.8-.65-1.544-1.474-1.721-1.366a29.039,29.039,0,0,0-3.8,2.823c-.106.092.464,1.364.67,1.35a5.505,5.505,0,0,0,2.407-.681,18.763,18.763,0,0,0,2.44-2.126m-52.507-6.1c-1.317-1.377-2.373-2.531-3.532-3.571a6.633,6.633,0,0,0-1.388,1.134,36.5,36.5,0,0,0,2.952,3.845c.043.049,1.034-.735,1.967-1.408m41.664-56.89c.633-.828,1.449-1.426,1.374-1.877-.352-2.111-2.432-1.791-3.854-2.287-.327-.114-1.039.871-1.574,1.35l4.053,2.814m19.048,54.59c-.994-.741-1.953-1.527-2-1.478a35.273,35.273,0,0,0-3.019,3.768c-.065.094,1.1,1.212,1.144,1.178,1.234-1.012,2.4-2.109,3.872-3.468m-43.691,16.919c.77-.818,1.688-1.363,1.646-1.82-.207-2.246-2.409-1.7-3.767-2.285-.29-.126-1.042.817-1.582,1.268l3.7,2.837m-11.676-71.076c-1.4,1.385-2.558,2.438-3.553,3.624-.107.127.7,1.024,1.09,1.564,1.27-1.019,2.57-2.007,3.751-3.121a13.046,13.046,0,0,0-1.288-2.068m-.915,60.579a12.93,12.93,0,0,0-1.316,2.054,26.15,26.15,0,0,0,3.546,2.92c.133.09.922-.783,1.406-1.21l-3.636-3.765m56.47-14.7c.788.779,1.353,1.749,1.78,1.691,2.141-.29,1.828-2.392,2.334-3.805.127-.355-.823-1.1-1.278-1.658l-2.836,3.773M158.1,174.076v-.017c.589,0,1.293.2,1.738-.052.519-.3,1.228-1.085,1.132-1.489-.457-1.923-2.146-1.132-3.313-1.1-.745.022-1.469.774-2.2,1.2a8.158,8.158,0,0,0,1.343,1.421c.306.2.86.037,1.3.037m30.02-63.046c-.231.283-1.024.962-.915,1.17a23.264,23.264,0,0,0,2.479,3.758c.123.153,1.313-.191,1.592-.594.71-1.025-1.515-4.376-3.155-4.335m-7.9-8.973a11.168,11.168,0,0,0-1.312,2.1,26,26,0,0,0,3.494,3.014c.118.084.92-.781,1.4-1.206l-3.586-3.906M146.24,96.946l-3.891,3.084c.5.445,1.205,1.367,1.457,1.255a37.848,37.848,0,0,0,3.939-2.239l-1.506-2.1m-26.811,28.191c.887.831,1.4,1.708,1.887,1.7,2.267-.04,1.733-2.184,2.208-3.48.164-.448-.6-1.237-.947-1.871l-3.148,3.651m10.2-12.423-1.856-1.548c-1,1.222-2.042,2.42-2.946,3.712a6.858,6.858,0,0,0,1.243,1.26c1.141-1,2.207-2.079,3.559-3.424m-7.313,31.3c-.865.75-1.688,1.207-1.629,1.453a24.889,24.889,0,0,0,1.454,4.253c.087.2,1.464.137,1.508-.017a4.757,4.757,0,0,0,.21-2.408,20.6,20.6,0,0,0-1.544-3.281m-3.739-8.763.472.334c0,.441-.147.957.032,1.306a12.112,12.112,0,0,0,1.278,1.718,18.861,18.861,0,0,0,1.427-1.84c.163-.267.037-.719.022-1.086-.046-1.145.219-2.694-1.5-2.551-.631.053-1.156,1.376-1.73,2.12m73.339-12.336,2.97,3.882c.433-.5,1.331-1.18,1.219-1.468-.536-1.381.051-3.509-2.1-3.881-.463-.08-1.08.73-2.085,1.468m5.453,12.629.432-.364c-.626-.76-1.217-2.125-1.885-2.164-1.731-.1-1.339,1.507-1.4,2.618a3.394,3.394,0,0,0,.105,1.726,2.15,2.15,0,0,0,1.458.965c.355.03.924-.593,1.119-1.044a5.574,5.574,0,0,0,.169-1.737" transform="translate(-39.731 -44.301)" fill="#272727"/>
    <path id="Path_79" data-name="Path 79" d="M23.959,32.323l9.217-9.236a11.185,11.185,0,0,0,1.2,1.683Q55.946,46.384,77.529,67.99a15.3,15.3,0,0,1,2.677,3.755c2.5,4.857,4.881,9.777,7.609,15.283-2.989-1.464-5.345-2.788-7.829-3.8-6.719-2.739-12.167-7.058-17.213-12.26-12.156-12.532-24.64-24.747-37-37.081-.578-.577-1.237-1.07-1.814-1.564m7.164.151c-.485.372-1.226.728-1.187.95a3.62,3.62,0,0,0,.855,1.876Q51.169,55.752,71.64,76.112c.539.535,1.607.536,2.429.786-.211-.817-.16-1.9-.673-2.412q-20.35-20.481-40.811-40.85a17.286,17.286,0,0,0-1.461-1.163m47.286,40.7c-1-1.184-1.509-1.894-2.12-2.506q-19.45-19.464-38.92-38.907c-.367-.367-.683-.872-1.129-1.053a6.221,6.221,0,0,0-1.749-.193,7.145,7.145,0,0,0,.03,1.81c.1.375.576.654.891.969q19.62,19.609,39.245,39.212c.419.418.826,1.039,1.323,1.136a7.753,7.753,0,0,0,2.43-.469" transform="translate(-13.249 -12.767)" fill="#272727"/>
    <path id="Path_80" data-name="Path 80" d="M107.525,357.065h49.248a4.185,4.185,0,0,1,1.758.066,7.868,7.868,0,0,1,1.61,1.5,8.044,8.044,0,0,1-1.652,1.444,4.366,4.366,0,0,1-1.76.058H57.342c-1.141,0-2.442.063-2.416-1.542.026-1.567,1.317-1.531,2.46-1.531h50.139" transform="translate(-30.373 -197.418)" fill="#272727"/>
    <path id="Path_81" data-name="Path 81" d="M329.833,58.208h-3.944q-27.524,0-55.049,0a5.589,5.589,0,0,1-1.985-.076c-.569-.23-1.35-.862-1.352-1.321,0-.508.687-1.174,1.237-1.482a3.886,3.886,0,0,1,1.75-.128q29.53-.006,59.06,0c3.01,0,3.324.312,3.327,3.3q.011,12.7,0,25.4c0,.371.131.827-.037,1.1a24.627,24.627,0,0,1-1.558,2.065c-.483-.7-1.366-1.4-1.383-2.114-.122-5.121-.067-10.246-.068-15.37,0-3.694,0-7.389,0-11.363" transform="translate(-147.926 -30.506)" fill="#272727"/>
    <path id="Path_82" data-name="Path 82" d="M225.794,373.963q16.832,0,33.664,0a4.887,4.887,0,0,1,1.765.06c.54.224,1.337.835,1.3,1.206a2.42,2.42,0,0,1-1.158,1.593,4.355,4.355,0,0,1-1.964.161q-33.663.009-67.327,0c-.371,0-.833.139-1.1-.03-.768-.489-1.456-1.1-2.176-1.664.738-.444,1.471-1.261,2.216-1.274,6.24-.1,12.483-.059,18.726-.059h16.051" transform="translate(-104.405 -206.769)" fill="#272727"/>
    <path id="Path_83" data-name="Path 83" d="M63.968,376.276c-5.192,0-10.385.008-15.577-.007-1.08,0-2.453.245-2.463-1.437-.01-1.573,1.259-1.6,2.4-1.605,10.533-.008,21.066-.041,31.6.067.82.008,1.629,1.024,2.443,1.571-.793.47-1.578,1.33-2.382,1.348-5.338.122-10.68.063-16.02.063" transform="translate(-25.398 -206.384)" fill="#272727"/>
    <path id="Path_84" data-name="Path 84" d="M373.619,373.974a37.527,37.527,0,0,1,4.875.069c.654.085,1.208.933,1.808,1.434-.553.5-1.089,1.406-1.661,1.429-3.4.138-6.808.15-10.2,0-.578-.026-1.111-1.053-1.665-1.617.581-.438,1.129-1.188,1.749-1.253a49.2,49.2,0,0,1,5.1-.061" transform="translate(-202.82 -206.778)" fill="#272727"/>
    <path id="Path_85" data-name="Path 85" d="M17.53,25.754l-1.011-.943,8.757-8.734,1.038.95L17.53,25.754" transform="translate(-9.135 -8.89)" fill="#272727"/>
    <path id="Path_86" data-name="Path 86" d="M214.6,146.9c-4.18,11.955-2.848,23.022,5.357,32.652s18.888,12.829,31.3,10.57c-4.163,7.23-17.218,12.256-26.844,10.386-12.792-2.485-22.422-12.2-24.052-24.254-1.627-12.034,4.252-24.3,14.239-29.355" transform="translate(-110.649 -81.233)" fill="#272727"/>
    <path id="Path_87" data-name="Path 87" d="M269.945,148.357c-.848.447-1.558.818-2.265,1.194a32.563,32.563,0,0,0-12.84,12.318,3.275,3.275,0,0,1-2.269,1.535,27.724,27.724,0,0,1-17.46-6.194,3.867,3.867,0,0,1-1.294-2.567,27.764,27.764,0,0,1,3.116-13.711,3.815,3.815,0,0,1,1.872-1.679c10.471-3.849,24.2.114,31.14,9.1" transform="translate(-129.294 -76.194)" fill="#272727"/>
    <path id="Path_88" data-name="Path 88" d="M299.451,181.4c2.614,8.188,2.033,15.774-1.789,23.087a2.8,2.8,0,0,1-1.516,1.1,27.285,27.285,0,0,1-16.818.347,2.346,2.346,0,0,1-1.346-1.6,25.821,25.821,0,0,1,1.845-13.043,2.13,2.13,0,0,1,1.379-1.179c6.943-.826,12.84-3.842,18.246-8.705" transform="translate(-153.613 -100.313)" fill="#272727"/>
    <path id="Path_89" data-name="Path 89" d="M251.038,208.145c-7.926-4.056-13.13-10.342-15.622-19.6a33.945,33.945,0,0,0,17.734,5.82l-2.112,13.777" transform="translate(-130.182 -104.265)" fill="#272727"/>
    <path id="Path_90" data-name="Path 90" d="M301.7,167.086a2.741,2.741,0,0,1,.307.278c2.191,3.2,2.2,3.255-.721,5.651a27.848,27.848,0,0,1-13.374,6.139c1.123-4.091,8.037-10.121,13.788-12.067" transform="translate(-159.215 -92.397)" fill="#272727"/>
  </g>
</svg>
